HIERARCHY
ROOT Hips
{
 OFFSET 0.000000 0.000000 0.000000
 CHANNELS 6 Xposition Yposition Zposition Yrotation Xrotation Zrotation
 JOINT Chest
 {
  OFFSET 0.000000 9.585900 0.002600
  CHANNELS 3 Yrotation Xrotation Zrotation
  JOINT Chest2
  {
   OFFSET 0.000000 9.601200 -0.005300
   CHANNELS 3 Yrotation Xrotation Zrotation
   JOINT Chest3
   {
    OFFSET 0.000000 9.561800 0.000000
    CHANNELS 3 Yrotation Xrotation Zrotation
    JOINT Chest4
    {
     OFFSET 0.000000 9.552100 0.000000
     CHANNELS 3 Yrotation Xrotation Zrotation
     JOINT Neck
     {
      OFFSET 0.000000 14.453000 0.000000
      CHANNELS 3 Yrotation Xrotation Zrotation
      JOINT Head
      {
       OFFSET 0.000000 8.936500 -0.011300
       CHANNELS 3 Yrotation Xrotation Zrotation
       End Site
       {
        OFFSET 0.000000 17.073600 -0.006000
       }
      }
     }
     JOINT RightCollar
     {
      OFFSET -2.921100 9.558500 0.000000
      CHANNELS 3 Yrotation Xrotation Zrotation
      JOINT RightShoulder
      {
       OFFSET -13.519700 0.000000 0.000000
       CHANNELS 3 Yrotation Xrotation Zrotation
       JOINT RightElbow
       {
        OFFSET 0.000000 -29.696600 0.000000
        CHANNELS 3 Yrotation Xrotation Zrotation
        JOINT RightWrist
        {
         OFFSET 0.000000 -24.004700 0.000000
         CHANNELS 3 Yrotation Xrotation Zrotation
         End Site
         {
          OFFSET 0.000000 -17.728500 0.000000
         }
        }
       }
      }
     }
     JOINT LeftCollar
     {
      OFFSET 2.921100 9.558500 0.000000
      CHANNELS 3 Yrotation Xrotation Zrotation
      JOINT LeftShoulder
      {
       OFFSET 13.519700 0.000000 0.000000
       CHANNELS 3 Yrotation Xrotation Zrotation
       JOINT LeftElbow
       {
        OFFSET 0.000000 -29.696600 0.000000
        CHANNELS 3 Yrotation Xrotation Zrotation
        JOINT LeftWrist
        {
         OFFSET 0.000000 -24.004700 0.000000
         CHANNELS 3 Yrotation Xrotation Zrotation
         End Site
         {
          OFFSET 0.000000 -17.728500 0.000000
         }
        }
       }
      }
     }
    }
   }
  }
 }
 JOINT RightHip
 {
  OFFSET -7.771700 -0.012900 -0.001300
  CHANNELS 3 Yrotation Xrotation Zrotation
  JOINT RightKnee
  {
   OFFSET 0.000000 -40.869800 0.001200
   CHANNELS 3 Yrotation Xrotation Zrotation
   JOINT RightAnkle
   {
    OFFSET 0.000000 -39.717900 0.002100
    CHANNELS 3 Yrotation Xrotation Zrotation
    JOINT RightToe
    {
     OFFSET 0.000000 -4.965400 11.033500
     CHANNELS 3 Yrotation Xrotation Zrotation
     End Site
     {
      OFFSET 0.000000 -1.423100 5.872300
     }
    }
   }
  }
 }
 JOINT LeftHip
 {
  OFFSET 7.771700 -0.012900 -0.001300
  CHANNELS 3 Yrotation Xrotation Zrotation
  JOINT LeftKnee
  {
   OFFSET 0.000000 -40.869800 0.001200
   CHANNELS 3 Yrotation Xrotation Zrotation
   JOINT LeftAnkle
   {
    OFFSET 0.000000 -39.717900 0.002100
    CHANNELS 3 Yrotation Xrotation Zrotation
    JOINT LeftToe
    {
     OFFSET 0.000000 -4.965400 11.033500
     CHANNELS 3 Yrotation Xrotation Zrotation
     End Site
     {
      OFFSET 0.000000 -1.423100 5.872300
     }
    }
   }
  }
 }
}
MOTION
Frames: 12
Frame Time: 0.008333
0.000000 85.388000 0.000000 0.000000 -5.767877 0.000000 0.000000 11.653817 0.000000 0.000000 -5.885947 0.000000 0.000000 -0.000000 0.000000 0.000000 -0.000000 0.000000 0.000000 12.528835 0.000000 0.000000 0.711642 0.000000 0.000000 -0.000000 0.000000 0.000000 0.000000 -90.000000 0.000000 -2.309062 0.000000 0.000000 2.309062 0.000000 0.000000 -0.000000 0.000000 0.000000 -0.000000 90.000000 0.000000 -2.309062 0.000000 0.000000 2.309062 0.000000 0.000000 8.520406 0.000000 0.000000 1.905762 0.000000 -0.000000 -4.658285 0.000000 0.000000 -0.000000 0.000000 0.000000 8.520406 0.000000 0.000000 1.905762 0.000000 -0.000000 -4.658285 0.000000 0.000000 -0.000000 0.000000
-133.038882 58.005758 110.125835 177.740561 -30.312651 -2.061832 1.290413 19.803537 2.674913 0.061326 2.453535 0.312843 0.223049 4.038585 0.461404 1.056879 17.072964 2.177827 -1.073837 12.142776 -1.540923 -1.434048 -13.254893 -2.456058 1.383121 -1.562655 -0.943136 5.082843 -11.190334 -14.146026 151.460025 -71.566284 -120.529835 16.652556 -17.739341 -47.429463 -6.596652 -4.467765 -2.655322 1.111656 -7.054321 -0.568243 28.096282 -52.683762 -65.708732 6.066634 -9.269893 28.205219 5.258444 -44.340437 -4.345515 -8.654860 66.780503 -9.233976 7.473421 22.412100 7.238350 -0.132094 -15.070624 0.413481 -8.851625 -42.571449 1.924438 23.787732 65.976079 21.645920 -16.037306 4.137468 -2.338931 0.080890 -0.059641 0.047911
-133.045465 58.008442 110.123448 177.775839 -30.317890 -2.052958 1.304397 19.809224 2.643294 0.086926 2.457578 0.300765 0.163731 4.034581 0.491789 1.139040 17.080509 2.139983 -1.076463 12.104567 -1.482465 -1.431769 -13.320448 -2.377002 1.381251 -1.550727 -0.927165 5.077196 -11.199184 -14.172524 151.528781 -71.571191 -120.617984 16.656674 -17.765497 -47.371293 -6.605505 -4.452783 -2.618904 1.159073 -7.030093 -0.535825 28.045103 -52.703409 -65.754599 6.081314 -9.313371 28.282358 5.261098 -44.326680 -4.370718 -8.715915 66.780047 -9.327457 7.503911 22.407684 7.309626 -0.137504 -15.079833 0.384349 -8.847686 -42.566270 1.890911 23.802787 65.964975 21.634904 -16.036893 4.146671 -2.318667 0.066899 -0.065750 0.044987
-133.046733 58.011746 110.120935 177.809546 -30.323567 -2.075104 1.305606 19.814878 2.647479 0.087376 2.457408 0.300613 0.195278 4.036290 0.477738 1.177557 17.085997 2.136131 -1.075753 12.060952 -1.439279 -1.448080 -13.401550 -2.295042 1.373594 -1.539739 -0.910552 5.086864 -11.204740 -14.206137 151.563032 -71.569232 -120.644858 16.661898 -17.790874 -47.329829 -6.603440 -4.435952 -2.598356 1.203371 -7.007467 -0.501317 27.993307 -52.728043 -65.798923 6.088003 -9.341672 28.336822 5.225323 -44.308528 -4.339680 -8.758684 66.769059 -9.400621 7.505472 22.406026 7.360783 -0.129298 -15.084649 0.358470 -8.859269 -42.558504 1.895837 23.771679 65.964384 21.604806 -16.045344 4.151217 -2.311948 0.072080 -0.066959 0.045086
-133.050408 58.015137 110.118129 177.837463 -30.327740 -2.078186 1.307376 19.819828 2.634556 0.183412 2.466180 0.268513 0.194176 4.037727 0.480755 1.169587 17.085050 2.157274 -1.085150 12.006350 -1.396452 -1.483513 -13.503093 -2.209345 1.358713 -1.532168 -0.889704 5.097100 -11.212712 -14.239390 151.580049 -71.561976 -120.625321 16.667023 -17.792077 -47.346948 -6.606706 -4.421557 -2.577616 1.245617 -6.986658 -0.466494 28.056899 -52.751892 -65.828658 6.077968 -9.300101 28.294167 5.210825 -44.297639 -4.341371 -8.764542 66.770189 -9.432731 7.502865 22.408906 7.409530 -0.127830 -15.096429 0.333087 -8.851970 -42.553054 1.881627 23.777961 65.959925 21.594594 -16.047173 4.154109 -2.291319 0.058959 -0.065403 0.046251
-133.056778 58.017670 110.116397 177.871510 -30.320380 -2.065241 1.329718 19.816108 2.605105 0.192008 2.469657 0.268043 0.219789 4.042447 0.472753 1.189999 17.085945 2.159765 -1.106303 11.941197 -1.354041 -1.541275 -13.624237 -2.119487 1.299479 -1.539992 -0.845836 5.151653 -11.204631 -14.291593 151.607311 -71.561833 -120.646295 16.670462 -17.799275 -47.345481 -6.615332 -4.408124 -2.554934 1.252067 -6.978257 -0.432579 28.100271 -52.769815 -65.854355 6.073909 -9.290347 28.297243 5.211125 -44.299578 -4.378406 -8.732969 66.778049 -9.425099 7.494582 22.411884 7.455791 -0.123938 -15.109512 0.307366 -8.831952 -42.562376 1.849640 23.795156 65.949033 21.572687 -16.048121 4.170803 -2.250349 0.033058 -0.069296 0.044437
-133.059394 58.020730 110.113894 177.907416 -30.316806 -2.071198 1.359442 19.818600 2.595558 0.201824 2.471214 0.269212 0.189391 4.038628 0.481667 1.258455 17.095436 2.140462 -1.140536 11.866726 -1.313065 -1.623555 -13.762656 -2.026662 1.237474 -1.547567 -0.802231 5.209556 -11.194119 -14.341337 151.634316 -71.560580 -120.673442 16.673609 -17.802903 -47.350696 -6.624884 -4.391577 -2.532692 1.188343 -6.993541 -0.397276 28.170761 -52.770073 -65.863124 6.073289 -9.300767 28.323321 5.194949 -44.294372 -4.380316 -8.711808 66.779666 -9.432551 7.476861 22.412515 7.511317 -0.114523 -15.119243 0.274361 -8.826823 -42.566700 1.835480 23.788542 65.944650 21.551042 -16.057380 4.182348 -2.225363 0.023495 -0.075711 0.038972
-133.057977 58.023749 110.111540 177.928665 -30.311127 -2.089268 1.484892 19.824157 2.620667 0.106217 2.459104 0.291325 0.249353 4.048823 0.464927 1.224866 17.086518 2.158190 -1.148642 11.792209 -1.305595 -1.729223 -13.918039 -1.933110 1.313114 -1.501469 -0.844446 5.171446 -11.228738 -14.338418 151.667077 -71.562722 -120.709177 16.687023 -17.781518 -47.404210 -6.580675 -4.366187 -2.543742 1.306777 -6.954936 -0.372810 28.111874 -52.811327 -65.940417 6.074241 -9.313847 28.346730 5.184873 -44.293335 -4.360043 -8.721860 66.779050 -9.457300 7.460764 22.410009 7.536176 -0.100545 -15.123875 0.264402 -8.791978 -42.568590 1.846519 23.701240 65.951000 21.470714 -16.086140 4.183824 -2.213597 0.048282 -0.075818 0.045165
-133.055500 58.026759 110.108961 177.945591 -30.304348 -2.107083 1.538345 19.826044 2.638166 0.080634 2.453435 0.296971 0.304966 4.060718 0.449185 1.263449 17.089307 2.151187 -1.229416 11.695077 -1.253622 -1.860499 -14.090730 -1.838749 1.292329 -1.483883 -0.821153 5.166531 -11.247405 -14.350691 151.712014 -71.569395 -120.756522 16.687992 -17.793148 -47.389939 -6.600694 -4.350619 -2.510038 1.350070 -6.939230 -0.348954 28.106884 -52.839232 -65.991608 6.075761 -9.323351 28.360495 5.183815 -44.297261 -4.345581 -8.763212 66.777948 -9.500733 7.461213 22.426080 7.578062 -0.089388 -15.144164 0.235538 -8.782443 -42.570721 1.860659 23.642248 65.955213 21.420400 -16.097753 4.176365 -2.215877 0.057937 -0.072253 0.050546
-133.058071 58.030342 110.104582 177.954886 -30.305090 -2.086729 1.552876 19.832411 2.615434 0.162283 2.471136 0.277201 0.265489 4.054327 0.460273 1.317065 17.097395 2.137724 -1.325143 11.590014 -1.205830 -2.021413 -14.277044 -1.741779 1.260996 -1.478541 -0.789474 5.171626 -11.252226 -14.364812 151.757958 -71.576736 -120.805116 16.684856 -17.807354 -47.375143 -6.613905 -4.335886 -2.480471 1.356673 -6.934553 -0.324679 28.130627 -52.866931 -66.033101 6.077023 -9.327362 28.365766 5.257940 -44.291558 -4.389221 -8.809994 66.788009 -9.544034 7.422243 22.446358 7.599325 -0.062099 -15.174534 0.232160 -8.732156 -42.570075 1.829718 23.622973 65.952067 21.388538 -16.100419 4.153401 -2.198160 0.030753 -0.047135 0.054431
-133.063338 58.033404 110.100715 177.999726 -30.296944 -2.065179 1.576798 19.843448 2.576374 0.168209 2.473423 0.275443 0.258109 4.053218 0.462371 1.348974 17.101892 2.130807 -1.418348 11.486081 -1.175217 -2.213045 -14.469926 -1.642417 1.252279 -1.467479 -0.767133 5.172946 -11.256181 -14.375199 151.794874 -71.585285 -120.850261 16.686841 -17.809008 -47.382620 -6.604779 -4.316657 -2.464586 1.365687 -6.932972 -0.302701 28.153244 -52.900100 -66.074709 6.078349 -9.330794 28.367151 5.279586 -44.294375 -4.445267 -8.798191 66.805562 -9.557109 7.410017 22.440800 7.644186 -0.061473 -15.187760 0.216919 -8.713744 -42.580992 1.779821 23.702975 65.936950 21.414766 -16.122737 4.168394 -2.138332 0.017220 -0.059013 0.031871
-133.062824 58.036912 110.096731 178.006388 -30.289914 -2.056354 1.645487 19.856657 2.570973 0.158217 2.471389 0.277879 0.266180 4.056468 0.460040 1.382077 17.106949 2.123727 -1.527591 11.380929 -1.148962 -2.433993 -14.664938 -1.544009 1.244333 -1.458781 -0.744784 5.128093 -11.280837 -14.362482 151.827562 -71.601683 -120.846684 16.690019 -17.808018 -47.388322 -6.597764 -4.298899 -2.447677 1.382614 -6.930557 -0.283683 28.174680 -52.937840 -66.121563 6.077199 -9.330500 28.365208 5.291104 -44.298459 -4.458878 -8.811828 66.807995 -9.574827 7.408392 22.449431 7.660010 -0.047497 -15.201391 0.203761 -8.690100 -42.586531 1.768056 23.718870 65.932186 21.411134 -16.131195 4.174708 -2.111888 0.003113 -0.062824 0.027250
